HIERARCHY
ROOT Hips
{
	OFFSET 0.000000 88.474243 0.000000
	CHANNELS 6 Xposition Yposition Zposition Zrotation Yrotation Xrotation 
	JOINT Hips_Spine
	{
		OFFSET 0.000000 0.000000 0.000000
		CHANNELS 3 Zrotation Yrotation Xrotation
		JOINT Spine
		{
			OFFSET 0.005100 8.711998 -0.691000
			CHANNELS 3 Zrotation Yrotation Xrotation
			JOINT Spine1
			{
				OFFSET -0.009200 8.660301 -1.275000
				CHANNELS 3 Zrotation Yrotation Xrotation
				JOINT Spine2
				{
					OFFSET 0.006300 9.852501 -1.857000
					CHANNELS 3 Zrotation Yrotation Xrotation
					JOINT Spine2_Neck
					{
						OFFSET 0.000000 0.000000 0.000000
						CHANNELS 3 Zrotation Yrotation Xrotation
						JOINT Neck
						{
							OFFSET 0.016300 11.420799 -0.263300
							CHANNELS 3 Zrotation Yrotation Xrotation
							End Site #name: Head
							{
								OFFSET -0.019200 9.262405 2.362500
							}
						}
					}
					JOINT Spine2_LeftShoulder
					{
						OFFSET 0.000000 0.000000 0.000000
						CHANNELS 3 Zrotation Yrotation Xrotation
						JOINT LeftShoulder
						{
							OFFSET 5.616900 6.732201 -0.345700
							CHANNELS 3 Zrotation Yrotation Xrotation
							JOINT LeftArm
							{
								OFFSET 10.664888 -0.183372 -2.440700
								CHANNELS 3 Zrotation Yrotation Xrotation
								JOINT LeftForeArm
								{
									OFFSET 27.459126 0.000000 0.000000
									CHANNELS 3 Zrotation Yrotation Xrotation
									End Site #name: LeftHand
									{
										OFFSET 21.306858 0.000000 0.000000
									}
								}
							}
						}
					}
					JOINT Spine2_RightShoulder
					{
						OFFSET 0.000000 0.000000 0.000000
						CHANNELS 3 Zrotation Yrotation Xrotation
						JOINT RightShoulder
						{
							OFFSET -5.580300 6.737503 -0.344400
							CHANNELS 3 Zrotation Yrotation Xrotation
							JOINT RightArm
							{
								OFFSET -10.679335 -0.188484 -2.383900
								CHANNELS 3 Zrotation Yrotation Xrotation
								JOINT RightForeArm
								{
									OFFSET -27.503529 0.000000 0.000000
									CHANNELS 3 Zrotation Yrotation Xrotation
									End Site #name: RightHand
									{
										OFFSET -21.306808 0.000000 0.000000
									}
								}
							}
						}
					}
				}
			}
		}
	}
	JOINT Hips_LeftUpLeg
	{
		OFFSET 0.000000 0.000000 0.000000
		CHANNELS 3 Zrotation Yrotation Xrotation
		JOINT LeftUpLeg
		{
			OFFSET 6.857700 -6.739601 0.312100
			CHANNELS 3 Zrotation Yrotation Xrotation
			JOINT LeftLeg
			{
				OFFSET -0.367590 -34.731552 -4.572400
				CHANNELS 3 Zrotation Yrotation Xrotation
				End Site #name: LeftFoot
				{
					OFFSET 0.367590 -34.656704 -6.067400
				}
			}
		}
	}
	JOINT Hips_RightUpLeg
	{
		OFFSET 0.000000 0.000000 0.000000
		CHANNELS 3 Zrotation Yrotation Xrotation
		JOINT RightUpLeg
		{
			OFFSET -6.876100 -6.733299 0.301000
			CHANNELS 3 Zrotation Yrotation Xrotation
			JOINT RightLeg
			{
				OFFSET 0.347353 -34.795158 -4.515900
				CHANNELS 3 Zrotation Yrotation Xrotation
				End Site #name: RightFoot
				{
					OFFSET -0.347353 -34.589367 -6.070300
				}
			}
		}
	}
}
MOTION
Frames: 12
Frame Time: 0.041667
0.712156 -0.422751 6.000486 -1.906773 32.036125 -8.262587 -0.000000 0.000000 0.000000 2.314133 -3.785854 -5.750050 2.931194 -2.165038 -1.888550 0.000000 0.000000 0.000000 3.143349 -1.500086 -2.372329 2.214468 -3.099095 -1.816480 2.479018 -1.836518 -2.249753 -17.933842 1.378740 8.537825 -55.141774 12.475660 7.900566 -0.587037 -26.376924 6.777720 2.218235 -1.580171 -0.881429 10.733869 7.145693 1.900987 60.752008 3.395274 -8.767588 0.740661 47.356049 -0.626351 0.000000 -0.000000 -0.000000 -5.468345 18.023289 -0.664338 -2.465641 0.580350 19.155112 0.000000 0.000000 0.000000 -2.257575 3.379321 -21.523854 6.082489 -0.669247 14.239573 
0.512852 -0.504750 6.501729 -2.165268 31.831517 -8.517080 -0.000000 0.000000 0.000000 2.913924 -3.571228 -5.974421 3.092688 -2.173662 -1.864995 0.000000 0.000000 0.000000 3.278765 -1.453736 -2.344083 2.192466 -3.111636 -1.589210 2.662099 -1.803751 -2.181354 -17.451408 1.307644 8.529962 -56.004343 13.253393 6.978364 -0.611164 -27.099521 6.736911 2.376911 -1.541109 -0.891779 10.775054 7.274563 1.952575 60.835749 3.106857 -8.816600 0.742708 47.472481 -0.633717 0.000000 -0.000000 -0.000000 -4.734834 18.383671 0.097835 -2.925276 0.340160 19.107922 0.000000 -0.000000 0.000000 -1.710328 3.527923 -21.771931 6.057936 -1.650851 14.666732 
0.353130 -0.582770 6.989660 -2.322259 31.049074 -8.640424 -0.000000 0.000000 0.000000 3.404591 -3.393937 -6.140130 3.246616 -2.190439 -1.832142 0.000000 0.000000 0.000000 3.407677 -1.413003 -2.310746 2.170288 -3.129104 -1.338958 2.835420 -1.776990 -2.111333 -17.024673 1.183418 8.478507 -56.825738 13.991210 6.152770 -0.643083 -27.660450 6.737346 2.527999 -1.513898 -0.898390 10.826056 7.391873 1.998408 60.899528 2.849024 -8.791107 0.744100 47.615436 -0.641886 0.000000 -0.000000 -0.000000 -4.086719 18.605608 0.741963 -3.272432 0.110495 19.074050 0.000000 -0.000000 0.000000 -1.255308 3.842068 -21.972955 6.071238 -2.565150 15.118743 
0.239208 -0.657584 7.447701 -2.299168 29.602175 -8.564764 -0.000000 0.000000 0.000000 3.817219 -3.276475 -6.232338 3.392208 -2.216272 -1.785516 0.000000 0.000000 0.000000 3.524135 -1.374511 -2.262487 2.167811 -3.186607 -0.999740 2.995664 -1.760141 -2.014926 -16.654665 1.046695 8.398273 -57.557898 14.617286 5.417203 -0.681602 -28.136287 6.754177 2.668265 -1.496408 -0.895247 10.887167 7.497297 2.035254 60.924411 2.652552 -8.716167 0.746820 47.790080 -0.646448 0.000000 -0.000000 -0.000000 -3.522045 18.737640 1.233641 -3.682348 -0.187076 19.300219 0.000000 -0.000000 0.000000 -0.881602 4.306958 -22.176639 6.116611 -3.307663 15.670764 
0.176479 -0.728716 7.865591 -2.122597 27.348603 -8.387659 -0.000000 -0.000000 0.000000 4.198784 -3.231575 -6.251129 3.526801 -2.229574 -1.724133 0.000000 0.000000 0.000000 3.631048 -1.339102 -2.210129 2.150663 -3.294312 -0.572690 3.137218 -1.746157 -1.903231 -16.335580 0.883911 8.290018 -58.236167 15.165904 4.756756 -0.726045 -28.545845 6.801880 2.792082 -1.481171 -0.879458 10.964293 7.565556 2.077519 60.898183 2.519992 -8.607423 0.748609 48.014917 -0.647371 0.000000 -0.000000 -0.000000 -3.057822 18.681963 1.557842 -4.022213 -0.468612 19.820298 0.000000 -0.000000 0.000000 -0.600451 4.865305 -22.456726 6.175579 -3.845307 16.439765 
0.165582 -0.795649 8.247355 -1.855734 24.709301 -8.222372 -0.000000 -0.000000 0.000000 4.529473 -3.275255 -6.162869 3.638548 -2.238505 -1.654488 0.000000 0.000000 0.000000 3.723173 -1.309651 -2.153099 2.140401 -3.391264 -0.126910 3.263321 -1.736060 -1.786533 -16.077818 0.700113 8.147361 -58.829339 15.620830 4.201773 -0.766569 -28.872597 6.852167 2.895929 -1.471738 -0.859209 11.065068 7.596135 2.116707 60.829727 2.455309 -8.430307 0.751232 48.347391 -0.647494 0.000000 -0.000000 -0.000000 -2.732262 18.362815 1.678865 -4.197459 -0.675941 20.611458 0.000000 -0.000000 0.000000 -0.400642 5.501049 -22.810672 6.257172 -4.134096 17.476549 
0.206132 -0.857841 8.595386 -1.550345 21.852412 -8.080049 -0.000000 -0.000000 0.000000 4.839496 -3.413709 -6.003255 3.736622 -2.247958 -1.571489 0.000000 0.000000 0.000000 3.799314 -1.285132 -2.079193 2.162018 -3.438695 0.219558 3.377998 -1.727725 -1.671177 -15.898196 0.539175 8.006440 -59.286066 15.909572 3.704020 -0.812407 -29.129928 6.905712 2.987985 -1.465757 -0.833014 11.174925 7.605962 2.149445 60.710940 2.440499 -8.192675 0.755809 48.781917 -0.645490 0.000000 -0.000000 -0.000000 -2.514448 17.800196 1.626287 -4.237256 -0.821568 21.584735 0.000000 -0.000000 0.000000 -0.244103 6.181297 -23.242998 6.356570 -4.280654 18.768688 
0.302505 -0.918999 8.907373 -1.245664 18.878113 -7.959472 -0.000000 -0.000000 0.000000 5.151029 -3.615741 -5.823303 3.821173 -2.254791 -1.475180 0.000000 0.000000 0.000000 3.863304 -1.262388 -2.000002 2.211559 -3.419398 0.451758 3.479705 -1.720387 -1.569289 -15.791357 0.412022 7.852121 -59.628680 16.093530 3.348856 -0.868806 -29.298065 6.952328 3.066915 -1.459882 -0.804125 11.271267 7.599913 2.178032 60.563270 2.480362 -7.901038 0.760517 49.218429 -0.642539 0.000000 -0.000000 -0.000000 -2.390315 17.097418 1.499747 -4.316849 -0.977899 22.552768 0.000000 -0.000000 0.000000 -0.106795 6.876472 -23.653174 6.531152 -4.207074 20.099523 
0.461053 -0.978875 9.176955 -0.933820 15.906784 -7.864322 -0.000000 -0.000000 0.000000 5.421517 -3.863582 -5.637715 3.891696 -2.252914 -1.386259 0.000000 0.000000 0.000000 3.918230 -1.237855 -1.920712 2.250983 -3.351481 0.618495 3.569115 -1.710810 -1.480833 -15.746939 0.316574 7.685441 -59.869263 16.205744 3.165182 -0.928705 -29.401148 6.988700 3.135651 -1.452009 -0.777388 11.351864 7.586270 2.202267 60.415233 2.525594 -7.571398 0.763748 49.620465 -0.640186 0.000000 -0.000000 -0.000000 -2.363491 16.276332 1.350106 -4.519147 -1.203436 23.467940 0.000000 -0.000000 0.000000 -0.001709 7.591737 -23.937873 6.834213 -3.831734 21.345029 
0.679778 -1.037871 9.400908 -0.598065 12.951686 -7.782965 -0.000000 -0.000000 0.000000 5.597247 -4.136049 -5.466173 3.953748 -2.252554 -1.314204 0.000000 0.000000 0.000000 3.965326 -1.215936 -1.854931 2.244586 -3.283228 0.778323 3.650233 -1.703927 -1.416710 -15.755032 0.257803 7.528549 -60.016027 16.272377 3.119324 -0.995613 -29.439988 7.012640 3.198667 -1.446170 -0.761504 11.407535 7.563439 2.217977 60.274827 2.562195 -7.238797 0.767841 49.982176 -0.637271 0.000000 -0.000000 -0.000000 -2.510003 15.396447 1.031173 -4.785938 -1.392845 24.534686 0.000000 -0.000000 0.000000 0.049355 8.265474 -24.111578 7.270108 -3.169619 22.481737 
0.954566 -1.093835 9.585457 -0.242089 10.023113 -7.694273 -0.000000 -0.000000 0.000000 5.664062 -4.389706 -5.289885 4.008407 -2.251929 -1.270117 0.000000 0.000000 0.000000 4.009480 -1.199096 -1.808159 2.219201 -3.207680 0.904637 3.722180 -1.698460 -1.380035 -15.825642 0.230799 7.393607 -60.080922 16.339490 3.139336 -1.066030 -29.398733 6.999790 3.256080 -1.443248 -0.755698 11.448804 7.537309 2.228414 60.143328 2.562899 -6.924222 0.771435 50.222569 -0.635149 0.000000 -0.000000 -0.000000 -2.894485 14.394599 0.540778 -5.079084 -1.624261 25.637018 0.000000 -0.000000 0.000000 -0.051279 8.831334 -24.211803 7.764410 -2.400141 23.505691 
1.280343 -1.146660 9.744924 0.096190 7.403515 -7.653256 -0.000000 -0.000000 0.000000 5.669549 -4.495060 -5.153122 4.057466 -2.255499 -1.242418 0.000000 0.000000 0.000000 4.047574 -1.187549 -1.775409 2.168168 -3.142245 1.013641 3.785766 -1.699469 -1.370149 -15.966768 0.235317 7.284234 -60.062530 16.443858 3.229878 -1.147663 -29.332087 6.969288 3.307871 -1.443976 -0.759069 11.470179 7.514689 2.232853 60.018973 2.513070 -6.631573 0.774598 50.317852 -0.631128 0.000000 -0.000000 -0.000000 -3.504538 13.412654 0.024899 -5.324282 -1.831710 26.575025 0.000000 -0.000000 0.000000 -0.305391 9.259830 -24.198422 8.306266 -1.550876 24.415526 
